HIERARCHY
ROOT hip
{
  OFFSET 57.7899 83.6053 105.283
  CHANNELS 6 Xposition Yposition Zposition Zrotation Xrotation Yrotation
  JOINT abdomen
  {
    OFFSET 0 20.6881 -0.73152
    CHANNELS 3 Zrotation Xrotation Yrotation
    JOINT chest
    {
      OFFSET 0 11.7043 -0.48768
      CHANNELS 3 Zrotation Xrotation Yrotation
      JOINT neck
      {
        OFFSET 0 22.1894 -2.19456
        CHANNELS 3 Zrotation Xrotation Yrotation
        JOINT head
        {
          OFFSET -0.24384 7.07133 1.2192
          CHANNELS 3 Zrotation Xrotation Yrotation
          JOINT leftEye
          {
            OFFSET 4.14528 8.04674 8.04672
            CHANNELS 3 Zrotation Xrotation Yrotation
            End Site
            {
              OFFSET 1 0 0
            }
          }
          JOINT rightEye
          {
            OFFSET -3.6576 8.04674 8.04672
            CHANNELS 3 Zrotation Xrotation Yrotation
            End Site
            {
              OFFSET 1 0 0
            }
          }
        }
      }
      JOINT rCollar
      {
        OFFSET -2.68224 19.2634 -4.8768
        CHANNELS 3 Zrotation Xrotation Yrotation
        JOINT rShldr
        {
          OFFSET -8.77824 -1.95073 1.46304
          CHANNELS 3 Zrotation Xrotation Yrotation
          JOINT rForeArm
          {
            OFFSET -28.1742 -1.7115 0.48768
            CHANNELS 3 Zrotation Xrotation Yrotation
            JOINT rHand
            {
              OFFSET -22.5879 0.773209 7.07136
              CHANNELS 3 Zrotation Xrotation Yrotation
              JOINT rThumb1
              {
                OFFSET -1.2192 -0.487915 3.41376
                CHANNELS 3 Zrotation Xrotation Yrotation
                JOINT rThumb2
                {
                  OFFSET -3.37035 -0.52449 3.41376
                  CHANNELS 3 Zrotation Xrotation Yrotation
                  End Site
                  {
                    OFFSET -1.78271 -1.18214 1.43049
                  }
                }
              }
              JOINT rIndex1
              {
                OFFSET -7.75947 0.938293 5.60832
                CHANNELS 3 Zrotation Xrotation Yrotation
                JOINT rIndex2
                {
                  OFFSET -2.54057 -0.884171 1.56538
                  CHANNELS 3 Zrotation Xrotation Yrotation
                  End Site
                  {
                    OFFSET -1.62519 -0.234802 1.16502
                  }
                }
              }
              JOINT rMid1
              {
                OFFSET -8.24714 1.18213 3.41376
                CHANNELS 3 Zrotation Xrotation Yrotation
                JOINT rMid2
                {
                  OFFSET -3.10165 -0.590103 1.0647
                  CHANNELS 3 Zrotation Xrotation Yrotation
                  End Site
                  {
                    OFFSET -2.48547 -0.328903 0.83742
                  }
                }
              }
              JOINT rRing1
              {
                OFFSET -8.82822 0.546677 1.51678
                CHANNELS 3 Zrotation Xrotation Yrotation
                JOINT rRing2
                {
                  OFFSET -2.60934 -0.819778 -0.0198488
                  CHANNELS 3 Zrotation Xrotation Yrotation
                  End Site
                  {
                    OFFSET -2.33842 -0.294052 0.168128
                  }
                }
              }
              JOINT rPinky1
              {
                OFFSET -8.27202 -0.0477905 -0.4584
                CHANNELS 3 Zrotation Xrotation Yrotation
                JOINT rPinky2
                {
                  OFFSET -1.82734 -0.647385 -0.700984
                  CHANNELS 3 Zrotation Xrotation Yrotation
                  End Site
                  {
                    OFFSET -1.69225 -0.51767 -0.607171
                  }
                }
              }
            }
          }
        }
      }
      JOINT lCollar
      {
        OFFSET 2.68224 19.2634 -4.8768
        CHANNELS 3 Zrotation Xrotation Yrotation
        JOINT lShldr
        {
          OFFSET 8.77824 -1.95073 1.46304
          CHANNELS 3 Zrotation Xrotation Yrotation
          JOINT lForeArm
          {
            OFFSET 28.1742 -1.7115 0.48768
            CHANNELS 3 Zrotation Xrotation Yrotation
            JOINT lHand
            {
              OFFSET 22.5879 0.773209 7.07136
              CHANNELS 3 Zrotation Xrotation Yrotation
              JOINT lThumb1
              {
                OFFSET 1.2192 -0.487915 3.41376
                CHANNELS 3 Zrotation Xrotation Yrotation
                JOINT lThumb2
                {
                  OFFSET 3.37035 -0.52449 3.41376
                  CHANNELS 3 Zrotation Xrotation Yrotation
                  End Site
                  {
                    OFFSET 1.78271 -1.18214 1.43049
                  }
                }
              }
              JOINT lIndex1
              {
                OFFSET 7.75947 0.938293 5.60832
                CHANNELS 3 Zrotation Xrotation Yrotation
                JOINT lIndex2
                {
                  OFFSET 2.54057 -0.884171 1.56538
                  CHANNELS 3 Zrotation Xrotation Yrotation
                  End Site
                  {
                    OFFSET 1.62519 -0.234802 1.16502
                  }
                }
              }
              JOINT lMid1
              {
                OFFSET 8.24714 1.18213 3.41376
                CHANNELS 3 Zrotation Xrotation Yrotation
                JOINT lMid2
                {
                  OFFSET 3.10165 -0.590103 1.0647
                  CHANNELS 3 Zrotation Xrotation Yrotation
                  End Site
                  {
                    OFFSET 2.48547 -0.328903 0.83742
                  }
                }
              }
              JOINT lRing1
              {
                OFFSET 8.82822 0.546677 1.51678
                CHANNELS 3 Zrotation Xrotation Yrotation
                JOINT lRing2
                {
                  OFFSET 2.60934 -0.819778 -0.0198488
                  CHANNELS 3 Zrotation Xrotation Yrotation
                  End Site
                  {
                    OFFSET 2.33842 -0.294052 0.168128
                  }
                }
              }
              JOINT lPinky1
              {
                OFFSET 8.27202 -0.0477905 -0.4584
                CHANNELS 3 Zrotation Xrotation Yrotation
                JOINT lPinky2
                {
                  OFFSET 1.82734 -0.647385 -0.700984
                  CHANNELS 3 Zrotation Xrotation Yrotation
                  End Site
                  {
                    OFFSET 1.69225 -0.51767 -0.607171
                  }
                }
              }
            }
          }
        }
      }
    }
  }
  JOINT rButtock
  {
    OFFSET -8.77824 4.35084 1.2192
    CHANNELS 3 Zrotation Xrotation Yrotation
    JOINT rThigh
    {
      OFFSET 0 -1.70687 -2.19456
      CHANNELS 3 Zrotation Xrotation Yrotation
      JOINT rShin
      {
        OFFSET 0 -36.8199 0.73152
        CHANNELS 3 Zrotation Xrotation Yrotation
        JOINT rFoot
        {
          OFFSET 0.73152 -45.1104 -5.12064
          CHANNELS 3 Zrotation Xrotation Yrotation
          End Site
          {
            OFFSET -1.1221 -3.69964 12.103
          }
        }
      }
    }
  }
  JOINT lButtock
  {
    OFFSET 8.77824 4.35084 1.2192
    CHANNELS 3 Zrotation Xrotation Yrotation
    JOINT lThigh
    {
      OFFSET 0 -1.70687 -2.19456
      CHANNELS 3 Zrotation Xrotation Yrotation
      JOINT lShin
      {
        OFFSET 0 -36.8199 0.73152
        CHANNELS 3 Zrotation Xrotation Yrotation
        JOINT lFoot
        {
          OFFSET -0.73152 -45.1104 -5.12064
          CHANNELS 3 Zrotation Xrotation Yrotation
          End Site
          {
            OFFSET 1.1221 -3.69964 12.103
          }
        }
      }
    }
  }
}
MOTION
Frames:	8
Frame Time:	0.00833333
54.9268 85.1388 117.433 -0.311927 -0.00136762 0.00530377 0.41059 -0.00336424 0.0117806 0.113459 -0.0053952 0.0196593 -4.91219e-015 -7.95139e-016 1.86361e-017 -1.46542e-014 3.18055e-015 6.83322e-017 -0 0 0 -0 0 0 -2.48617e-015 8.3474e-018 9.93923e-017 -4.8547e-014 1.2424e-017 9.93923e-016 -8.78579e-013 2.65775e-013 1.90833e-014 -1.00681e-011 -2.50717e-013 2.54444e-014 -2.37476e-011 3.29578e-014 1.11319e-013 -4.10148e-011 5.08889e-014 1.78111e-013 -2.37393e-011 3.53837e-014 1.04958e-013 7.73091 5.47488 0.417314 -2.37474e-011 3.32964e-014 1.145e-013 2.90554 0.965183 0.102902 -2.37349e-011 3.3694e-014 1.04958e-013 10.2786 0.731801 0.0259123 -2.37502e-011 3.4191e-014 1.08139e-013 2.22167 -0.733487 -0.20892 -2.48361e-015 7.76503e-018 -9.93923e-017 -5.32593e-014 1.2424e-016 -7.95139e-016 -8.8002e-013 -2.58619e-013 -6.36111e-015 -1.00678e-011 2.8133e-013 5.40694e-014 -2.37469e-011 4.7704e-014 9.54166e-014 -4.09989e-011 7.95139e-014 1.82087e-013 -2.37508e-011 4.8901e-014 1.04958e-013 -7.73091 5.47488 -0.417314 -2.37476e-011 4.82053e-014 1.01778e-013 -2.90554 0.965183 -0.102902 -2.37505e-011 4.78077e-014 1.02573e-013 -10.2786 0.731801 -0.0259123 -2.37488e-011 4.85035e-014 9.85972e-014 -2.22167 -0.733487 0.20892 -2.03217e-016 0 -3.88251e-019 0.770609 -4.17183 -0.0656817 -0.0026549 2.00555 -0.0182706 -0.461834 2.16687 0.0961015 2.03217e-016 0 3.88251e-019 -0.14323 -2.55995 0.0260684 0.00716317 -0.91409 0.0621716 0.453769 3.47457 -0.121224 
55.5478 83.4568 111.842 -5.85988 4.85689 49.0338 -1.25895 -8.91044 -0.350269 0.8994 3.46869 -0.218313 -1.12652 4.3958 0.029756 2.71223 -5.45959 0.314023 -0 0 0 -0 0 0 -2.4326e-014 -3.70909e-014 9.00743e-016 23.1746 0.175597 -0.0337942 -3.40613 -1.41491 5.45544 0.011058 2.33295 0.326893 2.30731e-010 -1.10101e-010 3.7718e-010 4.01905e-010 -1.91478e-010 6.49798e-010 2.30738e-010 -1.10092e-010 3.77174e-010 7.73091 5.47488 0.417314 2.30731e-010 -1.10102e-010 3.77184e-010 2.90554 0.965183 0.102902 2.30743e-010 -1.10101e-010 3.77176e-010 10.2786 0.731801 0.0259123 2.30728e-010 -1.101e-010 3.77181e-010 2.22167 -0.733487 -0.20892 -2.43064e-014 -3.70935e-014 6.8604e-016 -21.519 6.13478 -1.44851 2.40863 -0.881669 -3.96152 -0.0201738 3.15295 -0.440702 1.87013e-010 -2.48016e-011 -9.18742e-011 3.21536e-010 -4.43891e-011 -1.60596e-010 1.87006e-010 -2.48028e-011 -9.18685e-011 -7.73091 5.47488 -0.417314 1.87011e-010 -2.48027e-011 -9.18733e-011 -2.90554 0.965183 -0.102902 1.87008e-010 -2.48034e-011 -9.18714e-011 -10.2786 0.731801 -0.0259123 1.87013e-010 -2.48018e-011 -9.18739e-011 -2.22167 -0.733487 0.20892 -2.03217e-016 0 -3.88251e-019 0.663344 -11.234 2.22004 0.000951404 3.91538 0.0315363 -0.558432 -2.42245 -1.21702 2.03217e-016 0 3.88251e-019 0.535605 -9.55066 -2.66653 0.00432014 1.26193 0.0245149 0.472173 1.53473 0.439166 
55.5533 83.4594 111.832 -15.2239 -2.70582 100.022 -3.15233 -18.3266 -0.760316 1.76115 7.14302 -0.471852 -2.32104 9.04326 0.0613956 5.64577 -11.2313 0.654774 -0 0 0 -0 0 0 -4.83145e-014 -7.81161e-014 3.03147e-015 47.6755 0.355934 -0.0684568 -6.7148 -2.86756 11.2323 -0.00629372 4.80022 0.67445 4.97123e-010 -2.15966e-010 7.98468e-010 8.65767e-010 -3.75732e-010 1.37576e-009 4.97127e-010 -2.1595e-010 7.98463e-010 7.73091 5.47488 0.417314 4.97121e-010 -2.15968e-010 7.98474e-010 2.90554 0.965183 0.102902 4.97134e-010 -2.15967e-010 7.98467e-010 10.2786 0.731801 0.0259123 4.97119e-010 -2.15966e-010 7.98474e-010 2.22167 -0.733487 -0.20892 -4.82731e-014 -7.81211e-014 2.79852e-015 -43.9197 12.6198 -3.03762 4.8248 -1.80075 -8.15594 0.0115198 6.47424 -0.909474 4.11165e-010 -6.4119e-011 -2.00871e-010 7.06978e-010 -1.14051e-010 -3.50906e-010 4.11154e-010 -6.41227e-011 -2.0087e-010 -7.73091 5.47488 -0.417314 4.11161e-010 -6.41218e-011 -2.00876e-010 -2.90554 0.965183 -0.102902 4.11158e-010 -6.41228e-011 -2.00873e-010 -10.2786 0.731801 -0.0259123 4.11167e-010 -6.41202e-011 -2.00874e-010 -2.22167 -0.733487 0.20892 -2.03217e-016 0 -3.88251e-019 1.19521 -18.6564 4.79777 0.00115435 5.9357 0.0844935 -0.890375 -7.26869 -2.62176 2.03217e-016 0 3.88251e-019 0.510991 -16.8839 -5.6778 0.00443113 3.56377 -0.0153477 0.532612 -0.516514 1.02742 
55.5585 83.4602 111.836 -12.9526 -18.3045 144.326 -4.96977 -26.7201 -1.18863 2.55907 10.4162 -0.704672 -3.39358 13.1874 0.091416 8.32267 -16.3767 0.977455 -0 0 0 -0 0 0 -6.80057e-014 -1.11289e-013 2.50344e-015 69.5245 0.52679 -0.101386 -9.42054 -4.09107 16.4043 -0.0471942 6.99793 0.987222 7.39689e-010 -3.30369e-010 1.13132e-009 1.28774e-009 -5.74536e-010 1.94904e-009 7.39692e-010 -3.30347e-010 1.13131e-009 7.73091 5.47488 0.417314 7.39686e-010 -3.30371e-010 1.13132e-009 2.90554 0.965183 0.102902 7.39699e-010 -3.3037e-010 1.13132e-009 10.2786 0.731801 0.0259123 7.39684e-010 -3.30369e-010 1.13133e-009 2.22167 -0.733487 -0.20892 -6.79519e-014 -1.11296e-013 2.25691e-015 -63.585 18.356 -4.55276 6.86274 -2.59448 -11.8955 0.0866805 9.4566 -1.33829 6.08533e-010 -7.45002e-011 -2.75813e-010 1.04661e-009 -1.33326e-010 -4.82153e-010 6.0852e-010 -7.45061e-011 -2.75816e-010 -7.73091 5.47488 -0.417314 6.08527e-010 -7.45044e-011 -2.75823e-010 -2.90554 0.965183 -0.102902 6.08524e-010 -7.45057e-011 -2.75819e-010 -10.2786 0.731801 -0.0259123 6.08537e-010 -7.45023e-011 -2.75819e-010 -2.22167 -0.733487 0.20892 -2.03217e-016 0 -3.88251e-019 2.29246 -25.1995 7.36802 -0.00187781 7.73502 0.132109 -1.39231 -11.5763 -3.9197 2.03217e-016 0 3.88251e-019 -0.223964 -23.3232 -8.65251 0.00723097 5.61397 -0.0510453 0.622793 -2.34398 1.56033 
55.5569 83.4591 111.842 -1.0206 -27.0008 178.254 -6.32902 -32.5612 -1.55697 3.13547 12.687 -0.875793 -4.15145 16.0732 0.115412 10.2252 -19.9583 1.22154 -0 0 0 -0 0 0 -7.69537e-014 -1.24833e-013 -4.67144e-015 84.7431 0.673944 -0.129981 -11.1769 -4.88784 20.0278 -0.0899218 8.52261 1.20678 9.22691e-010 -4.66117e-010 1.24307e-009 1.60501e-009 -8.09712e-010 2.14059e-009 9.22693e-010 -4.66092e-010 1.24306e-009 7.73091 5.47488 0.417314 9.22688e-010 -4.66119e-010 1.24307e-009 2.90554 0.965183 0.102902 9.227e-010 -4.66118e-010 1.24307e-009 10.2786 0.731801 0.0259123 9.22686e-010 -4.66117e-010 1.24308e-009 2.22167 -0.733487 -0.20892 -7.69107e-014 -1.2484e-013 -4.91992e-015 -77.1174 22.2666 -5.68351 8.21143 -3.12327 -14.4875 0.167748 11.5938 -1.65223 7.38943e-010 -1.25409e-011 -2.65621e-010 1.2717e-009 -2.6634e-011 -4.65743e-010 7.38928e-010 -1.25477e-011 -2.65624e-010 -7.73091 5.47488 -0.417314 7.38936e-010 -1.2546e-011 -2.65634e-010 -2.90554 0.965183 -0.102902 7.38933e-010 -1.25474e-011 -2.65629e-010 -10.2786 0.731801 -0.0259123 7.38947e-010 -1.25437e-011 -2.65627e-010 -2.22167 -0.733487 0.20892 -2.03217e-016 0 -3.88251e-019 3.45701 -29.6901 9.40193 -0.00586862 8.98185 0.165524 -1.86504 -14.562 -4.87193 2.03217e-016 0 3.88251e-019 -1.19716 -27.7204 -10.9873 0.0106633 7.03504 -0.0759938 0.708184 -3.61319 1.95275 
55.5529 83.458 111.831 5.79937 -28.3325 -167.493 -6.8936 -34.829 -1.75817 3.37459 13.552 -0.955418 -4.46897 17.1963 0.130353 10.9798 -21.3496 1.33246 -0 0 0 -0 0 0 -7.25361e-014 -1.13131e-013 -2.68173e-014 90.6737 0.79468 -0.150808 -11.8397 -5.18683 21.4574 -0.109578 9.10729 1.29166 1.08032e-009 -7.14797e-010 1.05749e-009 1.87602e-009 -1.23953e-009 1.81827e-009 1.08032e-009 -7.14776e-010 1.05748e-009 7.73091 5.47488 0.417314 1.08032e-009 -7.14799e-010 1.05749e-009 2.90554 0.965183 0.102902 1.08033e-009 -7.14798e-010 1.05749e-009 10.2786 0.731801 0.0259123 1.08032e-009 -7.14797e-010 1.0575e-009 2.22167 -0.733487 -0.20892 -7.25457e-014 -1.13136e-013 -2.70468e-014 -82.4233 23.6257 -6.12113 8.70276 -3.31282 -15.4597 0.210827 12.5746 -1.79836 8.43349e-010 2.01672e-010 -1.28954e-010 1.45352e-009 3.44448e-010 -2.3071e-010 8.43337e-010 2.01666e-010 -1.28955e-010 -7.73091 5.47488 -0.417314 8.43344e-010 2.01667e-010 -1.28967e-010 -2.90554 0.965183 -0.102902 8.43339e-010 2.01666e-010 -1.28961e-010 -10.2786 0.731801 -0.0259123 8.43353e-010 2.01669e-010 -1.28959e-010 -2.22167 -0.733487 0.20892 -2.03217e-016 0 -3.88251e-019 4.00928 -31.4141 10.3053 -0.00802782 9.45409 0.178493 -2.08531 -15.712 -5.28087 2.03217e-016 0 3.88251e-019 -1.71838 -29.4007 -12.0352 0.0120806 7.57279 -0.0855422 0.752865 -4.10017 2.15769 
55.543 83.4584 111.822 5.01804 -28.2626 -169.095 -6.84327 -34.5459 -1.80714 3.3656 13.4131 -0.967415 -4.4704 17.0604 0.138293 10.8976 -21.1769 1.34034 -0 0 0 -0 0 0 -5.84919e-014 -8.32913e-014 -5.93869e-014 89.9702 0.896225 -0.166167 -11.7749 -5.15945 21.3143 -0.106789 9.02063 1.27908 1.21707e-009 -1.04019e-009 6.58947e-010 2.10922e-009 -1.80154e-009 1.12793e-009 1.21707e-009 -1.04017e-009 6.58933e-010 7.73091 5.47488 0.417314 1.21707e-009 -1.04019e-009 6.5895e-010 2.90554 0.965183 0.102902 1.21707e-009 -1.04019e-009 6.58944e-010 10.2786 0.731801 0.0259123 1.21706e-009 -1.04019e-009 6.58957e-010 2.22167 -0.733487 -0.20892 -5.85837e-014 -8.32917e-014 -5.95826e-014 -81.9371 23.1738 -6.02042 8.60639 -3.2695 -15.2733 0.214668 12.7289 -1.82099 9.25956e-010 5.22209e-010 9.77039e-011 1.59886e-009 9.00188e-010 1.59915e-010 9.25947e-010 5.22206e-010 9.77084e-011 -7.73091 5.47488 -0.417314 9.25953e-010 5.22205e-010 9.76941e-011 -2.90554 0.965183 -0.102902 9.25946e-010 5.22205e-010 9.76996e-011 -10.2786 0.731801 -0.0259123 9.25958e-010 5.22206e-010 9.77025e-011 -2.22167 -0.733487 0.20892 -2.03217e-016 0 -3.88251e-019 3.93327 -31.1974 10.2818 -0.00813496 9.37311 0.176707 -2.07278 -15.5566 -5.28257 2.03217e-016 0 3.88251e-019 -1.70577 -29.1873 -12.0379 0.0114393 7.47972 -0.0839966 0.759434 -4.02885 2.22716 
55.5338 83.4595 111.818 1.19129 -27.6156 -177.043 -6.54398 -33.2477 -1.78219 3.25482 12.8776 -0.949052 -4.33752 16.4225 0.142024 10.4792 -20.3822 1.30388 -0 0 0 -0 0 0 -3.79171e-014 -4.26171e-014 -8.70615e-014 86.6219 0.979269 -0.182054 -11.422 -5.00347 20.5473 -0.095065 8.66284 1.22716 1.25263e-009 -1.26339e-009 1.55687e-010 2.16674e-009 -2.18647e-009 2.57502e-010 1.25263e-009 -1.26338e-009 1.55669e-010 7.73091 5.47488 0.417314 1.25263e-009 -1.26338e-009 1.55688e-010 2.90554 0.965183 0.102902 1.25263e-009 -1.26338e-009 1.55682e-010 10.2786 0.731801 0.0259123 1.25262e-009 -1.26338e-009 1.55694e-010 2.22167 -0.733487 -0.20892 -3.8088e-014 -4.26134e-014 -8.72249e-014 -79.1104 22.0452 -5.71651 8.2794 -3.13553 -14.6336 0.200282 12.5116 -1.78782 8.9146e-010 8.03714e-010 3.48703e-010 1.54228e-009 1.38893e-009 5.93734e-010 8.91456e-010 8.03714e-010 3.48713e-010 -7.73091 5.47488 -0.417314 8.9146e-010 8.03711e-010 3.48697e-010 -2.90554 0.965183 -0.102902 8.91451e-010 8.03711e-010 3.48702e-010 -10.2786 0.731801 -0.0259123 8.91461e-010 8.03711e-010 3.48705e-010 -2.22167 -0.733487 0.20892 -2.03217e-016 0 -3.88251e-019 3.60488 -30.2094 9.88574 -0.00739011 9.07264 0.169062 -1.96562 -14.8846 -5.11759 2.03217e-016 0 3.88251e-019 -1.46862 -28.223 -11.6014 0.0102731 7.13842 -0.0780831 0.747573 -3.73708 2.22315 
